<svg viewBox="0 0 760 300" xmlns="http://www.w3.org/2000/svg" font-family="Consolas, 'Courier New', monospace">
  <rect x="0" y="0" width="760" height="300" fill="#0b0e10" rx="10" />

  <!-- axes -->
  <line x1="40" y1="40" x2="40" y2="220" stroke="#3a4148" stroke-width="1.5" />
  <line x1="40" y1="220" x2="720" y2="220" stroke="#3a4148" stroke-width="1.5" />

  <!-- gridlines -->
  <line x1="40" y1="130" x2="720" y2="130" stroke="#22282d" stroke-width="1" stroke-dasharray="3,4" />
  <line x1="380" y1="40" x2="380" y2="220" stroke="#22282d" stroke-width="1" stroke-dasharray="3,4" />

  <!-- axis labels -->
  <text x="40" y="238" fill="#7f8a91" font-size="11">0 ms</text>
  <text x="700" y="238" fill="#7f8a91" font-size="11">800 ms</text>
  <text x="370" y="252" fill="#a0a7b0" font-size="12">time since light removed &#8594;</text>
  <text x="10" y="45" fill="#7f8a91" font-size="11">1.0</text>
  <text x="10" y="224" fill="#7f8a91" font-size="11">0.0</text>
  <text x="-140" y="18" fill="#a0a7b0" font-size="12" transform="rotate(-90)">cell conductance</text>

  <!-- VTL5C3 -- fast release, ~35ms -->
  <path d="M 40.0,40.0 L 43.4,59.4 L 46.8,76.8 L 50.2,92.2 L 53.6,106.0 L 57.0,118.4 L 60.4,129.3 L 63.8,139.1 L 67.2,147.9 L 70.6,155.6 L 74.0,162.6 L 77.4,168.8 L 80.8,174.3 L 84.2,179.3 L 87.6,183.7 L 91.0,187.6 L 94.4,191.1 L 97.8,194.2 L 101.2,197.0 L 104.6,199.5 L 108.0,201.7 L 111.4,203.7 L 114.8,205.4 L 118.2,207.0 L 121.6,208.4 L 125.0,209.7 L 128.4,210.8 L 131.8,211.8 L 135.2,212.7 L 138.6,213.5 L 142.0,214.2 L 145.4,214.8 L 148.8,215.4 L 152.2,215.9 L 155.6,216.3 L 159.0,216.7 L 162.4,217.1 L 165.8,217.4 L 169.2,217.7 L 172.6,217.9 L 176.0,218.1 L 179.4,218.3 L 182.8,218.5 L 186.2,218.7 L 189.6,218.8 L 193.0,218.9 L 196.4,219.1 L 199.8,219.2 L 203.2,219.3 L 206.6,219.3 L 210.0,219.4 L 720.0,220.0"
        fill="none" stroke="#7fc7d9" stroke-width="2.5" />

  <!-- VTL5C4 -- slow release, ~1.5s (this ~800ms window only shows the first ~half) -->
  <path d="M 40.0,40.0 L 43.4,40.5 L 46.8,41.0 L 50.2,41.4 L 53.6,41.9 L 57.0,42.4 L 60.4,42.9 L 63.8,43.3 L 67.2,43.8 L 70.6,44.3 L 74.0,44.7 L 77.4,45.2 L 80.8,45.7 L 84.2,46.1 L 87.6,46.6 L 91.0,47.1 L 94.4,47.5 L 97.8,48.0 L 101.2,48.4 L 104.6,48.9 L 108.0,49.3 L 128.4,52.1 L 148.8,54.7 L 169.2,57.3 L 189.6,59.9 L 210.0,62.5 L 230.4,65.0 L 250.8,67.4 L 271.2,69.9 L 291.6,72.2 L 312.0,74.6 L 332.4,76.9 L 352.8,79.2 L 373.2,81.4 L 393.6,83.6 L 414.0,85.8 L 434.4,87.9 L 454.8,90.0 L 475.2,92.1 L 495.6,94.1 L 516.0,96.1 L 536.4,98.0 L 556.8,100.0 L 577.2,101.9 L 597.6,103.8 L 618.0,105.6 L 638.4,107.4 L 658.8,109.2 L 679.2,111.0 L 699.6,112.7 L 720.0,114.4"
        fill="none" stroke="#e2a86d" stroke-width="2.5" />

  <!-- legend -->
  <rect x="560" y="52" width="14" height="3" fill="#7fc7d9" />
  <text x="580" y="58" fill="#f3f1ec" font-size="12">VTL5C3 &#8776; 35 ms (fast / "pop")</text>
  <rect x="560" y="72" width="14" height="3" fill="#e2a86d" />
  <text x="580" y="78" fill="#f3f1ec" font-size="12">VTL5C4 &#8776; 1.5 s (slow / "swell")</text>

  <text x="400" y="20" fill="#f3f1ec" font-size="14" text-anchor="middle" font-weight="bold">Vactrol release response: VTL5C3 vs VTL5C4</text>
</svg>
